<svg width="74" height="74" fill="none" xmlns="http://www.w3.org/2000/svg"><path fill="#777" stroke="#777" stroke-width="2" d="M1 1h24v18H1z"/><path stroke="#777" stroke-width="2" d="M1 19h24v18H1zM1 37h24v18H1zM1 55h24v18H1z"/><path fill="#777" stroke="#777" stroke-width="2" d="M25 1h24v18H25z"/><path stroke="#777" stroke-width="2" d="M25 19h24v18H25zM25 37h24v18H25zM25 55h24v18H25z"/><path fill="#777" stroke="#777" stroke-width="2" d="M49 1h24v18H49z"/><path stroke="#777" stroke-width="2" d="M49 19h24v18H49zM49 37h24v18H49zM49 55h24v18H49z"/></svg>